# WaveFront *.obj file (generated by Cinema 4D)

mtllib ./trainingtarget.mtl

v 6.43085432052612 52.57319641113281 84.82178497314453
v 6.43085432052612 -52.57319641113281 84.82178497314453
v 88.79627227783203 0 45.99188995361328
v 80.84729766845703 0 -58.85359954833984
v -6.43085432052612 52.57319641113281 -84.82178497314453
v -6.43085432052612 -52.57319641113281 -84.82178497314453
v -88.79627227783203 0 -45.99188995361328
v -80.84729766845703 0 58.85359954833984
v 52.42274475097656 85.06521606445312 -3.97448658943176
v -52.42274475097656 85.06521606445312 3.97448658943176
v -52.42274475097656 -52.57323837280273 3.97448658943176
v 52.42274475097656 -52.57323837280273 -3.97448658943176
# 12 vertices

vn 0.02697543054819 0.93417239189148 0.35580092668533
vn 0 0 0
vn 0.61934524774551 0.57735025882721 0.5320508480072
vn 0 1 -0.00000000569136
vn 0.93149900436401 0.35682210326195 -0.07062262296677
vn 0.53205090761185 0.57735025882721 -0.61934518814087
vn -0.02697543054819 0.93417239189148 -0.35580092668533
vn -0.61934524774551 0.57735031843185 -0.53205090761185
vn -0.93149900436401 0.35682210326195 0.07062260806561
vn -0.53205090761185 0.57735025882721 0.61934518814087
vn 0 -1 0
vn 0.00000003729215 -1 0.00000049187656
vn 0.75309282541275 -0.64488130807877 0.13030475378036
vn 0.71352154016495 -0.69854176044464 -0.05409640446305
vn 0.61194014549255 -0.7246168255806 0.31695377826691
vn 0 -1 0
vn 0.72483915090561 -0.64488130807877 -0.2423557639122
vn 0.5571596622467 -0.7246168255806 -0.40559032559395
vn -0.00000003729215 -1 -0.00000049187656
vn -0.61194008588791 -0.72461688518524 -0.31695377826691
vn -0.75309276580811 -0.64488130807877 -0.13030475378036
vn -0.71352154016495 -0.69854176044464 0.05409640446305
vn -0.72483915090561 -0.64488130807877 0.2423557639122
vn -0.5571596622467 -0.7246168255806 0.40559032559395
vn 0 -1 0
vn -0.28517836332321 0 0.95847445726395
vn 0.42642357945442 0 0.90452361106873
vn 0.28517836332321 0 -0.95847445726395
vn -0.42642357945442 0 -0.90452361106873
vn nan nan nan
# 30 normals

vt 0.69999998807907 0.307000041008 0
vt 0.60000002384186 0.1340000629425 0
vt 0.5 0.307000041008 0
vt 0 1 0
vt 0.40000000596046 0.1340000629425 0
vt 0.10000000149012 1 0
vt 0.19999998807907 0.82700002193451 0
vt 0 0.82700002193451 0
vt 0.30000001192093 1 0
vt 1 0.48000001907349 0
vt 0.80000001192093 0.48000001907349 0
vt 0.89999997615814 0.65299999713898 0
vt 0.69999998807907 0.65299999713898 0
vt 0.60000002384186 0.48000001907349 0
vt 0.30000001192093 0.65299999713898 0
vt 0.5 0.65299999713898 0
vt 0.39999997615814 0.48000001907349 0
vt 0.30000001192093 0.307000041008 0
vt 0.20000000298023 0.48000001907349 0
vt 0.10000000149012 0.65400004386902 0
vt 0.39999997615814 0.82700002193451 0
vt 0.5 1 0
vt 0.60000002384186 0.82700002193451 0
# 23 texture coordinates

o Platonic
usemtl default
f 1/3/1 9/2/1 10/1/1
f 1/3/3 3/5/3 9/2/3
f 3/8/5 4/7/5 9/6/5
f 4/7/6 5/9/6 9/6/6
f 5/12/7 10/11/7 9/10/7
f 7/13/8 10/11/8 5/12/8
f 8/14/9 10/11/9 7/13/9
f 8/14/10 1/3/10 10/1/10
f 2/17/12 11/16/11 12/15/11
f 2/17/15 12/19/14 3/18/13
f 12/15/14 4/7/17 3/20/13
f 12/15/14 6/21/18 4/7/17
f 12/15/11 11/16/11 6/21/19
f 11/23/22 7/22/21 6/21/20
f 11/16/22 8/14/23 7/13/21
f 11/16/22 2/17/24 8/14/23
f 1/3/26 8/14/26 2/17/26
f 1/3/27 2/17/27 3/18/27
f 4/7/28 6/21/28 5/9/28
f 6/21/29 7/22/29 5/9/29

